<?xml version="1.0" encoding="iso-8859-1"?><!-- Generator: Adobe Illustrator 19.0.0, SVG Export Plug-In . SVG Version: 6.00 Build 0) --><svg xmlns="http://www.w3.org/2000/svg" xmlns:xlink="http://www.w3.org/1999/xlink" version="1.1" id="Capa_1" x="0px" y="0px" viewBox="0 0 505.711 505.711" style="enable-background:new 0 0 505.711 505.711;" xml:space="preserve" width="512" height="512"><g><path style="fill:#E95B2D;" d="M470.981,308.535c0,0-5.505-41.625-33.521-59.265c-28.014-17.638-67.931-4.612-67.931-4.612 s5.507,41.623,33.521,59.262C431.065,321.56,470.981,308.535,470.981,308.535z"/><path style="fill:#E95B2D;" d="M34.729,308.535c0,0,5.505-41.625,33.52-59.265c28.014-17.638,67.93-4.612,67.93-4.612 s-5.506,41.623-33.521,59.262C74.645,321.56,34.729,308.535,34.729,308.535z"/><path style="fill:#E95B2D;" d="M252.855,498.211c0-216.99,114.491-252.888,116.641-253.543 c-0.715-27.754-23.42-50.036-51.346-50.036H187.562c-27.928,0-50.632,22.282-51.348,50.036 C138.363,245.323,252.855,281.221,252.855,498.211z"/><path style="fill:#FABA45;" d="M252.855,498.211c64.437,0,116.675-118.795,116.675-191.604v-60.594 c0-0.451-0.022-0.896-0.034-1.346C367.347,245.323,252.855,281.221,252.855,498.211z"/><path style="fill:#FABA45;" d="M136.18,306.607c0,72.809,52.237,191.604,116.676,191.604c0-216.99-114.492-252.888-116.642-253.543 c-0.012,0.449-0.034,0.895-0.034,1.346V306.607z"/><circle style="fill:#E95B2D;" cx="185.734" cy="356.781" r="14.333"/><circle style="fill:#E95B2D;" cx="319.976" cy="356.781" r="14.333"/><path style="fill:#0F2639;" d="M478.417,307.552c-0.244-1.842-6.318-45.335-36.96-64.628 c-10.957-6.898-24.528-10.396-40.335-10.396c-9.578,0-18.208,1.303-24.372,2.579l-0.013-0.486l-0.792,0.241 c-2.239-11.723-7.978-22.488-16.678-30.984c-11.057-10.799-25.659-16.745-41.117-16.745h-12.117 c3.382-13.926,15.95-24.301,30.902-24.303h55.893c39.733,0,72.059-32.324,72.059-72.057h-15c0,28.917-21.63,52.862-49.559,56.548 V46.194c22.253-3.601,39.303-22.94,39.303-46.194h-15c0,14.952-10.376,27.521-24.303,30.901V0h-15v89.857 c-27.928-3.686-49.558-27.631-49.558-56.55h-15c0,37.2,28.337,67.904,64.558,71.667v42.854h-48.395 c-23.253,0.002-42.593,17.052-46.194,39.303h-78.441c-3.602-22.251-22.941-39.301-46.195-39.303H117.71v-42.854 c36.222-3.764,64.559-34.468,64.559-71.668h-15c0,28.919-21.631,52.864-49.559,56.55V0h-15v30.901 C88.782,27.521,78.407,14.952,78.407,0h-15c0,23.254,17.05,42.594,39.303,46.194V147.32c-27.928-3.686-49.559-27.631-49.559-56.548 h-15c0,39.732,32.325,72.057,72.059,72.057h55.893c14.953,0.002,27.521,10.377,30.903,24.303h-9.444 c-15.459,0-30.062,5.946-41.118,16.744c-8.7,8.497-14.438,19.262-16.679,30.985l-0.79-0.241l-0.013,0.486 c-6.163-1.276-14.794-2.579-24.373-2.579c-15.807,0-29.378,3.498-40.335,10.396c-30.641,19.293-36.716,62.786-36.96,64.628 l-0.817,6.18l5.927,1.934c0.625,0.204,15.534,5,33.913,5c15.809,0,29.381-3.498,40.339-10.398 c9.53-6.001,16.684-14.343,22.024-23.045v19.386c0,38.376,13.444,86.921,35.086,126.689c23.426,43.049,52.145,68.248,81.59,71.927 v0.487h7.5h7.5v-0.487c29.445-3.679,58.163-28.878,81.589-71.927c21.642-39.769,35.086-88.314,35.086-126.689v-19.387 c5.341,8.702,12.494,17.045,22.024,23.046c10.958,6.9,24.53,10.398,40.34,10.398h0.001c18.377,0,33.287-4.796,33.913-5l5.926-1.934 L478.417,307.552z M187.562,202.132H318.15c11.519,0,22.398,4.431,30.637,12.476c6.9,6.738,11.309,15.389,12.726,24.777 l-0.235,0.077l0.041,0.309c-0.233,0.102-0.474,0.206-0.719,0.315c-0.028,0.012-0.058,0.025-0.086,0.038 c-0.277,0.123-0.563,0.251-0.854,0.384c-0.075,0.035-0.151,0.068-0.228,0.104c-0.656,0.301-1.348,0.626-2.071,0.977 c-0.067,0.033-0.136,0.066-0.204,0.1c-0.746,0.363-1.524,0.754-2.336,1.174c-0.055,0.027-0.11,0.057-0.166,0.086 c-0.834,0.432-1.699,0.895-2.596,1.388c-0.037,0.02-0.075,0.041-0.112,0.061c-0.451,0.249-0.909,0.506-1.376,0.771l0,0 c-0.486,0.276-0.98,0.562-1.482,0.857c-0.01,0.006-0.02,0.012-0.029,0.017c-0.497,0.292-1.002,0.593-1.514,0.901 c-0.004,0.002-0.006,0.004-0.01,0.006c-1.037,0.628-2.105,1.293-3.199,1.997c-0.004,0.003-0.009,0.005-0.013,0.008 c-1.097,0.705-2.22,1.45-3.368,2.235l-0.001,0.001c-16.09,11.009-36.944,30.05-55.071,61.905c-0.012,0.023-0.024,0.044-0.037,0.065 c-1.276,2.245-2.539,4.555-3.786,6.929c-0.025,0.049-0.051,0.096-0.075,0.145c-1.238,2.36-2.459,4.785-3.662,7.275 c-0.031,0.063-0.06,0.126-0.091,0.188c-1.198,2.487-2.378,5.038-3.537,7.657c-0.03,0.07-0.062,0.141-0.093,0.211 c-0.566,1.285-1.129,2.585-1.686,3.902c-0.01,0.023-0.02,0.045-0.029,0.068c-0.569,1.35-1.134,2.718-1.692,4.104 c-0.026,0.064-0.052,0.131-0.078,0.195c-0.523,1.302-1.042,2.619-1.555,3.952c-0.043,0.11-0.086,0.221-0.128,0.331 c-0.537,1.4-1.068,2.816-1.593,4.25c-0.017,0.046-0.032,0.092-0.049,0.137c-0.493,1.352-0.98,2.72-1.461,4.102 c-0.063,0.18-0.126,0.357-0.188,0.537c-0.989,2.855-1.951,5.777-2.888,8.766c-0.075,0.24-0.15,0.48-0.226,0.723 c-0.919,2.959-1.81,5.984-2.673,9.075c-0.08,0.29-0.161,0.581-0.242,0.873c-0.849,3.075-1.669,6.216-2.458,9.423 c-0.081,0.331-0.161,0.663-0.242,0.994c-0.353,1.453-0.7,2.918-1.04,4.398c-0.039,0.167-0.078,0.332-0.117,0.5 c-0.369,1.617-0.729,3.253-1.082,4.902c-0.078,0.367-0.155,0.736-0.232,1.103c-0.297,1.407-0.588,2.826-0.873,4.257 c-0.062,0.307-0.124,0.61-0.184,0.919c-0.326,1.661-0.645,3.34-0.955,5.034c-0.024,0.134-0.051,0.263-0.075,0.397 c-0.025-0.138-0.053-0.271-0.077-0.408c-0.31-1.686-0.626-3.357-0.951-5.01c-0.063-0.325-0.13-0.646-0.194-0.97 c-0.28-1.408-0.566-2.804-0.859-4.189c-0.08-0.384-0.161-0.771-0.243-1.153c-0.351-1.639-0.708-3.265-1.075-4.871 c-0.043-0.188-0.087-0.371-0.13-0.559c-0.334-1.455-0.676-2.896-1.023-4.325c-0.084-0.349-0.169-0.698-0.255-1.046 c-0.393-1.598-0.791-3.183-1.199-4.747c-0.004-0.013-0.007-0.025-0.011-0.038c-0.403-1.546-0.816-3.07-1.233-4.584 c-0.087-0.313-0.174-0.625-0.261-0.938c-0.856-3.067-1.741-6.07-2.652-9.008c-0.084-0.269-0.168-0.537-0.252-0.805 c-0.448-1.432-0.901-2.852-1.362-4.252c-0.009-0.025-0.017-0.051-0.025-0.076c-0.482-1.467-0.974-2.912-1.469-4.346 c-0.076-0.219-0.152-0.435-0.229-0.652c-0.463-1.329-0.932-2.646-1.406-3.947c-0.031-0.085-0.061-0.172-0.093-0.257 c-0.515-1.407-1.036-2.797-1.563-4.172c-0.059-0.153-0.119-0.306-0.178-0.46c-0.49-1.272-0.985-2.531-1.485-3.775 c-0.045-0.111-0.09-0.224-0.135-0.336c-0.545-1.352-1.097-2.688-1.653-4.008c-0.032-0.078-0.066-0.154-0.099-0.232 c-0.527-1.245-1.059-2.475-1.595-3.691c-0.054-0.121-0.107-0.244-0.161-0.365c-1.136-2.566-2.291-5.065-3.465-7.502 c-0.058-0.12-0.115-0.24-0.173-0.359c-1.177-2.434-2.371-4.805-3.581-7.114c-0.055-0.105-0.109-0.21-0.165-0.315 c-1.216-2.313-2.446-4.563-3.689-6.752c-0.051-0.089-0.102-0.178-0.152-0.268c-1.253-2.199-2.52-4.338-3.796-6.417 c-0.038-0.062-0.076-0.123-0.114-0.185c-1.291-2.097-2.592-4.135-3.901-6.111c-0.023-0.032-0.044-0.064-0.066-0.098 c-1.99-3.001-3.999-5.866-6.018-8.6c-0.01-0.014-0.02-0.027-0.03-0.041c-1.342-1.816-2.688-3.574-4.036-5.277 c-0.023-0.029-0.047-0.059-0.07-0.089c-1.34-1.69-2.682-3.324-4.021-4.905c-0.03-0.035-0.06-0.07-0.09-0.104 c-1.336-1.574-2.672-3.095-4.004-4.565c-0.031-0.034-0.064-0.069-0.095-0.104c-1.333-1.467-2.661-2.883-3.983-4.247 c-0.028-0.029-0.057-0.059-0.085-0.087c-1.326-1.367-2.646-2.685-3.957-3.953c-0.021-0.02-0.042-0.04-0.063-0.06 c-1.319-1.275-2.63-2.5-3.928-3.678c-0.007-0.006-0.014-0.012-0.02-0.017c-0.645-0.585-1.287-1.157-1.926-1.719 c-0.012-0.01-0.023-0.02-0.034-0.03c-1.277-1.122-2.542-2.196-3.79-3.227c-0.032-0.025-0.064-0.053-0.096-0.078 c-1.23-1.015-2.446-1.985-3.645-2.915c-0.048-0.037-0.096-0.075-0.144-0.111c-1.186-0.917-2.353-1.793-3.501-2.63 c-0.056-0.041-0.111-0.082-0.168-0.122c-1.138-0.827-2.256-1.615-3.352-2.366c-0.062-0.043-0.123-0.084-0.185-0.126 c-1.089-0.743-2.156-1.451-3.198-2.123c-0.062-0.039-0.122-0.077-0.183-0.116c-0.499-0.32-0.993-0.634-1.479-0.938 c-0.018-0.011-0.035-0.021-0.053-0.033c-0.512-0.318-1.017-0.629-1.516-0.93c-0.051-0.031-0.103-0.063-0.154-0.094 c-0.456-0.275-0.907-0.543-1.352-0.805c-0.043-0.025-0.087-0.051-0.129-0.076c-0.479-0.279-0.949-0.552-1.413-0.815 c-0.042-0.023-0.082-0.046-0.124-0.069c-0.421-0.239-0.836-0.471-1.244-0.697c-0.061-0.033-0.121-0.066-0.182-0.1 c-0.444-0.245-0.882-0.483-1.312-0.712c-0.016-0.009-0.031-0.017-0.047-0.024c-0.404-0.217-0.801-0.424-1.191-0.627 c-0.066-0.034-0.134-0.069-0.199-0.104c-0.813-0.42-1.592-0.81-2.338-1.174c-0.057-0.027-0.113-0.055-0.169-0.082 c-0.746-0.361-1.458-0.696-2.133-1.005c-0.044-0.021-0.087-0.04-0.131-0.06c-0.598-0.271-1.169-0.525-1.706-0.758l0.041-0.309 l-0.241-0.079C147.354,218.102,165.452,202.132,187.562,202.132z M98.663,297.573c-8.528,5.369-19.411,8.092-32.347,8.092 c-9.186,0-17.485-1.409-22.879-2.607c2.708-11.608,10.369-35.831,28.809-47.441c8.526-5.368,19.408-8.09,32.343-8.09 c9.195,0,17.504,1.412,22.897,2.61C124.805,261.728,117.187,285.91,98.663,297.573z M176.94,426.128 c-20.205-37.131-33.261-84.045-33.261-119.521v-50.561c0.108,0.055,0.214,0.108,0.323,0.166c0.307,0.158,0.622,0.325,0.939,0.494 c0.245,0.13,0.489,0.26,0.74,0.396c0.359,0.194,0.729,0.401,1.102,0.608c0.232,0.129,0.46,0.254,0.697,0.389 c0.428,0.242,0.87,0.5,1.314,0.76c0.199,0.116,0.393,0.227,0.594,0.346c0.653,0.387,1.32,0.79,2.003,1.214 c9.476,5.88,23.775,16.651,38.089,34.575c16.154,20.23,29.042,45.27,38.304,74.421c0.709,2.231,1.396,4.491,2.062,6.771 c0.218,0.745,0.421,1.505,0.634,2.255c0.441,1.548,0.881,3.095,1.302,4.664c0.244,0.912,0.474,1.84,0.711,2.76 c0.369,1.429,0.741,2.855,1.095,4.302c0.244,0.998,0.475,2.012,0.711,3.019c0.327,1.39,0.655,2.778,0.968,4.185 c0.234,1.057,0.457,2.127,0.684,3.192c0.293,1.38,0.586,2.759,0.866,4.153c0.221,1.1,0.431,2.211,0.643,3.319 c0.265,1.385,0.527,2.77,0.779,4.168c0.204,1.135,0.4,2.279,0.595,3.424c0.238,1.395,0.473,2.793,0.698,4.202 c0.187,1.164,0.365,2.336,0.542,3.51c0.214,1.413,0.422,2.831,0.622,4.257c0.167,1.189,0.329,2.384,0.487,3.582 c0.189,1.435,0.372,2.875,0.549,4.323c0.147,1.211,0.291,2.425,0.43,3.646c0.166,1.457,0.323,2.924,0.476,4.395 c0.128,1.23,0.254,2.461,0.373,3.701c0.143,1.487,0.274,2.985,0.404,4.486c0.106,1.24,0.214,2.48,0.313,3.73 c0.12,1.527,0.228,3.066,0.335,4.606c0.086,1.245,0.174,2.487,0.252,3.74c0.098,1.572,0.181,3.159,0.264,4.744 c0.065,1.242,0.136,2.479,0.192,3.728c0.075,1.643,0.134,3.301,0.194,4.957c0.045,1.21,0.096,2.414,0.132,3.632 c0.053,1.767,0.087,3.551,0.124,5.333c0.022,1.127,0.055,2.245,0.071,3.378c0.002,0.158,0.001,0.32,0.003,0.479 C221.643,485.992,197.115,463.199,176.94,426.128z M328.77,426.128c-20.174,37.071-44.701,59.864-68.352,63.928 c0.002-0.159,0.001-0.321,0.003-0.479c0.017-1.133,0.049-2.251,0.071-3.378c0.037-1.782,0.071-3.566,0.124-5.333 c0.036-1.218,0.087-2.422,0.132-3.632c0.061-1.656,0.119-3.314,0.194-4.957c0.057-1.249,0.127-2.485,0.192-3.727 c0.083-1.586,0.166-3.173,0.264-4.745c0.078-1.254,0.166-2.496,0.253-3.742c0.106-1.539,0.214-3.076,0.334-4.602 c0.099-1.251,0.206-2.492,0.313-3.733c0.13-1.501,0.263-2.999,0.405-4.487c0.118-1.238,0.244-2.47,0.372-3.699 c0.152-1.47,0.31-2.936,0.475-4.394c0.14-1.222,0.283-2.436,0.431-3.649c0.177-1.447,0.359-2.887,0.549-4.32 c0.158-1.198,0.319-2.392,0.486-3.58c0.201-1.428,0.41-2.848,0.623-4.263c0.177-1.171,0.355-2.341,0.541-3.503 c0.227-1.412,0.462-2.814,0.7-4.211c0.194-1.142,0.39-2.282,0.593-3.414c0.252-1.402,0.517-2.793,0.782-4.181 c0.211-1.104,0.42-2.211,0.64-3.307c0.281-1.401,0.576-2.788,0.871-4.175c0.225-1.058,0.445-2.119,0.678-3.168 c0.314-1.415,0.645-2.813,0.974-4.212c0.234-0.999,0.463-2.004,0.705-2.995c0.355-1.453,0.73-2.887,1.101-4.323 c0.236-0.912,0.464-1.834,0.706-2.739c0.423-1.578,0.866-3.133,1.308-4.688c0.211-0.741,0.412-1.494,0.627-2.231 c0.667-2.282,1.353-4.541,2.063-6.773c9.263-29.151,22.149-54.19,38.305-74.421c0.877-1.098,1.754-2.168,2.629-3.213 c0.283-0.338,0.566-0.658,0.849-0.99c0.593-0.697,1.187-1.395,1.777-2.068c0.35-0.398,0.697-0.777,1.046-1.166 c0.52-0.58,1.039-1.164,1.556-1.727c0.412-0.447,0.822-0.877,1.233-1.313c0.445-0.474,0.891-0.953,1.334-1.413 c0.492-0.512,0.983-1.004,1.473-1.5c0.348-0.352,0.695-0.71,1.041-1.053c0.612-0.608,1.221-1.198,1.828-1.782 c0.205-0.197,0.412-0.401,0.617-0.596c0.775-0.737,1.547-1.458,2.314-2.158c0.018-0.017,0.035-0.033,0.053-0.05 c11.072-10.102,21.114-16.301,28.051-19.885v50.527C362.03,342.083,348.975,388.997,328.77,426.128z M439.395,305.665 c-12.937,0-23.82-2.723-32.348-8.092c-18.445-11.614-26.105-35.85-28.811-47.447c5.373-1.195,13.646-2.599,22.887-2.599 c12.935,0,23.816,2.722,32.343,8.09c18.442,11.612,26.103,35.84,28.81,47.44C456.878,304.256,448.579,305.665,439.395,305.665z"/><path style="fill:#0F2639;" d="M185.734,334.947c-12.039,0-21.833,9.795-21.833,21.834c0,12.039,9.794,21.833,21.833,21.833 c12.039,0,21.833-9.794,21.833-21.833C207.567,344.742,197.773,334.947,185.734,334.947z M185.734,363.614 c-3.768,0-6.833-3.065-6.833-6.833c0-3.769,3.065-6.834,6.833-6.834c3.768,0,6.833,3.065,6.833,6.834 C192.567,360.549,189.502,363.614,185.734,363.614z"/><path style="fill:#0F2639;" d="M319.976,334.947c-12.039,0-21.833,9.795-21.833,21.834c0,12.039,9.794,21.833,21.833,21.833 c12.039,0,21.833-9.794,21.833-21.833C341.809,344.742,332.015,334.947,319.976,334.947z M319.976,363.614 c-3.768,0-6.833-3.065-6.833-6.833c0-3.769,3.065-6.834,6.833-6.834s6.833,3.065,6.833,6.834 C326.809,360.549,323.743,363.614,319.976,363.614z"/></g></svg>
